<svg width="32" height="32" viewBox="0 0 32 32" fill="none" xmlns="http://www.w3.org/2000/svg">
<path d="M26.6667 15.0296V11.9202C26.6667 11.2129 26.3857 10.5346 25.8856 10.0345C25.3855 9.53445 24.7072 9.2535 24 9.2535H16.7055C16.4881 9.2535 16.2741 9.20035 16.0819 9.09869C15.8898 8.99702 15.7254 8.84992 15.6031 8.6702L13.7298 5.91679C13.6075 5.73706 13.4432 5.58996 13.251 5.48829C13.0589 5.38663 12.8448 5.33349 12.6274 5.3335H6.66667C5.95942 5.3335 5.28115 5.61445 4.78105 6.11454C4.28095 6.61464 4 7.29292 4 8.00016V24.4473C4 24.7388 4.05741 25.0274 4.16895 25.2967C4.2805 25.566 4.44399 25.8106 4.65009 26.0167C4.85619 26.2228 5.10088 26.3863 5.37016 26.4979C5.63945 26.6094 5.92807 26.6668 6.21955 26.6668V26.6668C6.72454 26.6668 7.21444 26.4946 7.60836 26.1786C8.00228 25.8626 8.27666 25.4217 8.38621 24.9288L10.2027 16.755C10.3343 16.1627 10.6639 15.633 11.1372 15.2534C11.6105 14.8737 12.1991 14.6668 12.8058 14.6668H25.3323C25.7316 14.6668 26.1258 14.7565 26.4858 14.9293C26.8459 15.102 27.1625 15.3534 27.4124 15.6649C27.6622 15.9764 27.839 16.34 27.9295 16.7289C28.02 17.1179 28.022 17.5222 27.9354 17.912L26.4539 24.5786C26.3223 25.1709 25.9927 25.7006 25.5194 26.0803C25.0461 26.4599 24.4575 26.6668 23.8508 26.6668H6.21955" stroke="#303757" stroke-width="2" stroke-linecap="round" stroke-linejoin="round"/>
</svg>
