<svg width="32" height="32" viewBox="0 0 32 32" fill="none" xmlns="http://www.w3.org/2000/svg">
<path d="M8.00065 9.3335H6.66732C5.93132 9.3335 5.33398 8.73616 5.33398 8.00016V6.66683C5.33398 5.93083 5.93132 5.3335 6.66732 5.3335H8.00065C8.73665 5.3335 9.33398 5.93083 9.33398 6.66683V8.00016C9.33398 8.73616 8.73665 9.3335 8.00065 9.3335Z" stroke="#303757" stroke-width="2" stroke-linecap="round" stroke-linejoin="round"/>
<path d="M16.6667 9.3335H15.3333C14.5973 9.3335 14 8.73616 14 8.00016V6.66683C14 5.93083 14.5973 5.3335 15.3333 5.3335H16.6667C17.4027 5.3335 18 5.93083 18 6.66683V8.00016C18 8.73616 17.4027 9.3335 16.6667 9.3335Z" stroke="#303757" stroke-width="2" stroke-linecap="round" stroke-linejoin="round"/>
<path d="M25.3327 9.3335H23.9993C23.2633 9.3335 22.666 8.73616 22.666 8.00016V6.66683C22.666 5.93083 23.2633 5.3335 23.9993 5.3335H25.3327C26.0687 5.3335 26.666 5.93083 26.666 6.66683V8.00016C26.666 8.73616 26.0687 9.3335 25.3327 9.3335Z" stroke="#303757" stroke-width="2" stroke-linecap="round" stroke-linejoin="round"/>
<path d="M14 8.00016V6.66683C14 5.93083 14.5973 5.3335 15.3333 5.3335H16.6667C17.4027 5.3335 18 5.93083 18 6.66683V8.00016C18 8.73616 17.4027 9.3335 16.6667 9.3335H15.3333C14.5973 9.3335 14 8.73616 14 8.00016Z" stroke="#303757" stroke-width="2" stroke-linecap="round" stroke-linejoin="round"/>
<path d="M8.00065 18H6.66732C5.93132 18 5.33398 17.4027 5.33398 16.6667V15.3333C5.33398 14.5973 5.93132 14 6.66732 14H8.00065C8.73665 14 9.33398 14.5973 9.33398 15.3333V16.6667C9.33398 17.4027 8.73665 18 8.00065 18Z" stroke="#303757" stroke-width="2" stroke-linecap="round" stroke-linejoin="round"/>
<path d="M16.6667 18H15.3333C14.5973 18 14 17.4027 14 16.6667V15.3333C14 14.5973 14.5973 14 15.3333 14H16.6667C17.4027 14 18 14.5973 18 15.3333V16.6667C18 17.4027 17.4027 18 16.6667 18Z" stroke="#303757" stroke-width="2" stroke-linecap="round" stroke-linejoin="round"/>
<path d="M25.3327 18H23.9993C23.2633 18 22.666 17.4027 22.666 16.6667V15.3333C22.666 14.5973 23.2633 14 23.9993 14H25.3327C26.0687 14 26.666 14.5973 26.666 15.3333V16.6667C26.666 17.4027 26.0687 18 25.3327 18Z" stroke="#303757" stroke-width="2" stroke-linecap="round" stroke-linejoin="round"/>
<path d="M8.00065 26.6665H6.66732C5.93132 26.6665 5.33398 26.0692 5.33398 25.3332V23.9998C5.33398 23.2638 5.93132 22.6665 6.66732 22.6665H8.00065C8.73665 22.6665 9.33398 23.2638 9.33398 23.9998V25.3332C9.33398 26.0692 8.73665 26.6665 8.00065 26.6665Z" stroke="#303757" stroke-width="2" stroke-linecap="round" stroke-linejoin="round"/>
<path d="M16.6667 26.6665H15.3333C14.5973 26.6665 14 26.0692 14 25.3332V23.9998C14 23.2638 14.5973 22.6665 15.3333 22.6665H16.6667C17.4027 22.6665 18 23.2638 18 23.9998V25.3332C18 26.0692 17.4027 26.6665 16.6667 26.6665Z" stroke="#303757" stroke-width="2" stroke-linecap="round" stroke-linejoin="round"/>
<path d="M25.3327 26.6665H23.9993C23.2633 26.6665 22.666 26.0692 22.666 25.3332V23.9998C22.666 23.2638 23.2633 22.6665 23.9993 22.6665H25.3327C26.0687 22.6665 26.666 23.2638 26.666 23.9998V25.3332C26.666 26.0692 26.0687 26.6665 25.3327 26.6665Z" stroke="#303757" stroke-width="2" stroke-linecap="round" stroke-linejoin="round"/>
</svg>
