<svg width="48" height="48" viewBox="0 0 48 48" fill="none" xmlns="http://www.w3.org/2000/svg">
<path d="M40 22.5441V17.88C40 16.8191 39.5786 15.8017 38.8284 15.0516C38.0783 14.3014 37.0609 13.88 36 13.88H25.0583C24.7322 13.88 24.4111 13.8003 24.1229 13.6478C23.8347 13.4953 23.5881 13.2746 23.4047 13.0051L20.5947 8.87494C20.4113 8.60535 20.1647 8.38469 19.8765 8.2322C19.5883 8.0797 19.2672 7.99999 18.9411 8H10C8.93913 8 7.92172 8.42143 7.17157 9.17157C6.42143 9.92172 6 10.9391 6 12V36.6707C6 37.1079 6.08612 37.5408 6.25343 37.9448C6.42074 38.3487 6.66598 38.7157 6.97514 39.0249C7.28429 39.334 7.65131 39.5793 8.05524 39.7466C8.45918 39.9139 8.89211 40 9.32932 40V40C10.0868 40 10.8217 39.7417 11.4125 39.2677C12.0034 38.7937 12.415 38.1324 12.5793 37.3929L15.304 25.1323C15.5014 24.2439 15.9959 23.4493 16.7058 22.8799C17.4157 22.3104 18.2986 22 19.2087 22H37.9984C38.5974 22 39.1887 22.1345 39.7287 22.3936C40.2688 22.6528 40.7437 23.0299 41.1185 23.4971C41.4933 23.9643 41.7584 24.5098 41.8942 25.0932C42.03 25.6766 42.0331 26.283 41.9031 26.8677L39.6809 36.8677C39.4835 37.7561 38.989 38.5507 38.2791 39.1202C37.5691 39.6896 36.6863 40 35.7762 40H9.32932" stroke="#303757" stroke-width="3" stroke-linecap="round" stroke-linejoin="round"/>
</svg>
