<svg width="48" height="48" viewBox="0 0 48 48" fill="none" xmlns="http://www.w3.org/2000/svg">
<path d="M36.0378 24.0381L39.4978 20.5781V20.5781C42.883 17.2939 42.9648 11.8873 39.6806 8.50211C36.3964 5.11693 30.9898 5.03507 27.6046 8.31929C27.5428 8.3793 27.4818 8.44025 27.4218 8.50211L20.0218 15.9021V15.9021C16.6871 19.2345 16.6852 24.6392 20.0175 27.9738C20.019 27.9753 20.0204 27.9767 20.0218 27.9781L19.9998 28.0001V28.0001C20.6891 28.6763 21.4894 29.229 22.3658 29.6341" stroke="#303757" stroke-width="3" stroke-linecap="round" stroke-linejoin="round"/>
<path d="M25.6124 18.386V18.386C26.4889 18.7918 27.2892 19.3452 27.9784 20.022H27.9784C31.3131 23.3543 31.315 28.759 27.9827 32.0937C27.9812 32.0951 27.9798 32.0966 27.9784 32.098L20.5784 39.498V39.498C17.1932 42.7822 11.7866 42.7003 8.50239 39.3152C5.28827 36.0022 5.28827 30.7349 8.50239 27.422L11.9624 23.962" stroke="#303757" stroke-width="3" stroke-linecap="round" stroke-linejoin="round"/>
</svg>
