<svg width="32" height="32" viewBox="0 0 32 32" fill="none" xmlns="http://www.w3.org/2000/svg">
<path d="M12 14C13.104 14 14 14.896 14 16C14 17.104 13.104 18 12 18C10.896 18 10 17.104 10 16C10 14.896 10.896 14 12 14Z" stroke="#303757" stroke-width="2" stroke-linecap="round" stroke-linejoin="round"/>
<path d="M21.5859 10.6665C21.5859 11.7705 20.6899 12.6665 19.5859 12.6665C18.4819 12.6665 17.5859 11.7705 17.5859 10.6665C17.5859 9.5625 18.4819 8.6665 19.5859 8.6665C20.6899 8.6665 21.5859 9.5625 21.5859 10.6665Z" stroke="#303757" stroke-width="2" stroke-linecap="round" stroke-linejoin="round"/>
<path d="M28.7578 21.3335C28.7578 22.4375 27.8618 23.3335 26.7578 23.3335C25.6538 23.3335 24.7578 22.4375 24.7578 21.3335C24.7578 20.2295 25.6538 19.3335 26.7578 19.3335C27.8618 19.3335 28.7578 20.2295 28.7578 21.3335Z" stroke="#303757" stroke-width="2" stroke-linecap="round" stroke-linejoin="round"/>
<path d="M28 16H14" stroke="#303757" stroke-width="2" stroke-linecap="round" stroke-linejoin="round"/>
<path d="M10 16H4" stroke="#303757" stroke-width="2" stroke-linecap="round" stroke-linejoin="round"/>
<path d="M24.7602 21.3335H5.24023" stroke="#303757" stroke-width="2" stroke-linecap="round" stroke-linejoin="round"/>
<path d="M17.5869 10.6665H5.24023" stroke="#303757" stroke-width="2" stroke-linecap="round" stroke-linejoin="round"/>
<path d="M26.7593 10.6665H21.5859" stroke="#303757" stroke-width="2" stroke-linecap="round" stroke-linejoin="round"/>
<path d="M19.842 12.6519C19.9446 13.7145 20.0006 14.8372 20.0006 15.9999C20.0006 22.6279 18.21 27.9999 16.0006 27.9999C14.018 27.9999 12.374 23.6745 12.0566 17.9985" stroke="#303757" stroke-width="2" stroke-linecap="round" stroke-linejoin="round"/>
<path d="M19.1766 8.708C18.446 5.84667 17.2953 4 16.0006 4C14.0193 4 12.374 8.32533 12.0566 14" stroke="#303757" stroke-width="2" stroke-linecap="round" stroke-linejoin="round"/>
<path d="M27.4893 19.468C27.82 18.3693 28 17.2067 28 16C28 9.372 22.628 4 16 4C9.372 4 4 9.372 4 16C4 22.628 9.372 28 16 28C19.996 28 23.5333 26.0453 25.7133 23.0427" stroke="#303757" stroke-width="2" stroke-linecap="round" stroke-linejoin="round"/>
</svg>
