<svg width="32" height="32" viewBox="0 0 32 32" fill="none" xmlns="http://www.w3.org/2000/svg">
<path d="M17.832 17.6665C17.556 17.6685 17.334 17.8925 17.334 18.1685C17.334 18.4445 17.558 18.6685 17.834 18.6665C18.11 18.6665 18.334 18.4425 18.334 18.1665C18.334 17.8905 18.11 17.6665 17.832 17.6665Z" stroke="#303757" stroke-linecap="round" stroke-linejoin="round"/>
<path d="M4 8.37733V8C4 5.79067 5.79067 4 8 4H24C26.2093 4 28 5.79067 28 8V20C28 22.2093 26.2093 24 24 24H22.6667" stroke="#303757" stroke-width="2" stroke-linecap="round" stroke-linejoin="round"/>
<path d="M27.9993 12H22.666" stroke="#303757" stroke-width="2" stroke-linecap="round" stroke-linejoin="round"/>
<path d="M17.7667 27.8962C20.2733 28.4749 22.6667 26.5709 22.6667 23.9989V12.5162C22.6667 10.6536 21.3813 9.03756 19.5667 8.61889L7.26667 5.78022C5.59467 5.39356 4 6.66289 4 8.37756V21.5362C4 23.3989 5.28533 25.0149 7.1 25.4336L17.7667 27.8962Z" stroke="#303757" stroke-width="2" stroke-linecap="round" stroke-linejoin="round"/>
</svg>
