<svg width="32" height="32" viewBox="0 0 32 32" fill="none" xmlns="http://www.w3.org/2000/svg">
<path d="M21.3359 28.0049H24.0037C26.2138 28.0049 28.0054 26.2133 28.0054 24.0032V21.3354" stroke="#303757" stroke-width="2" stroke-linecap="round" stroke-linejoin="round"/>
<path d="M3.99414 21.3354V24.0032C3.99414 26.2133 5.78575 28.0049 7.99581 28.0049H10.6636" stroke="#303757" stroke-width="2" stroke-linecap="round" stroke-linejoin="round"/>
<path d="M21.3359 3.99463H24.0037C26.2138 3.99463 28.0054 5.78624 28.0054 7.9963V10.6641" stroke="#303757" stroke-width="2" stroke-linecap="round" stroke-linejoin="round"/>
<path d="M3.99414 10.6641V7.9963C3.99414 5.78624 5.78575 3.99463 7.99581 3.99463H10.6636" stroke="#303757" stroke-width="2" stroke-linecap="round" stroke-linejoin="round"/>
<circle cx="12.0201" cy="21.6022" r="2.401" stroke="#303757" stroke-width="2" stroke-linecap="round" stroke-linejoin="round"/>
<circle cx="19.8717" cy="21.6022" r="2.401" stroke="#303757" stroke-width="2" stroke-linecap="round" stroke-linejoin="round"/>
<path d="M14.4219 21.6024C14.7819 21.123 15.3466 20.8409 15.9461 20.8409C16.5457 20.8409 17.1104 21.123 17.4704 21.6024" stroke="#303757" stroke-width="2" stroke-linecap="round" stroke-linejoin="round"/>
<path d="M7.99805 17.0507C13.0703 14.6804 18.9324 14.6804 24.0047 17.0507" stroke="#303757" stroke-width="2" stroke-linecap="round" stroke-linejoin="round"/>
<path d="M10.9062 12.7986L11.4592 9.48229C11.6021 8.62513 12.3437 7.99684 13.2127 7.99658H18.7844C19.654 7.99613 20.3963 8.62459 20.5394 9.48229L21.0923 12.7986" stroke="#303757" stroke-width="2" stroke-linecap="round" stroke-linejoin="round"/>
</svg>
