<svg width="32" height="32" viewBox="0 0 32 32" fill="none" xmlns="http://www.w3.org/2000/svg">
<path d="M24.0252 16.0252L26.3319 13.7186V13.7186C28.5887 11.5291 28.6432 7.9247 26.4538 5.66791C24.2643 3.41113 20.6599 3.35655 18.4031 5.54603C18.3618 5.58604 18.3212 5.62667 18.2812 5.66791L13.3479 10.6012V10.6012C11.1247 12.8228 11.1235 16.4259 13.345 18.6491C13.346 18.65 13.3469 18.651 13.3479 18.6519L13.3332 18.6666V18.6666C13.7927 19.1173 14.3263 19.4858 14.9105 19.7559" stroke="#303757" stroke-width="2" stroke-linecap="round" stroke-linejoin="round"/>
<path d="M17.0743 12.2573V12.2573C17.6586 12.5279 18.1921 12.8968 18.6516 13.348H18.6516C20.8747 15.5696 20.876 19.1727 18.6545 21.3958C18.6535 21.3968 18.6526 21.3977 18.6516 21.3987L13.7183 26.332V26.332C11.4615 28.5215 7.85709 28.4669 5.66761 26.2101C3.52486 24.0015 3.52486 20.4899 5.66761 18.2813L7.97427 15.9747" stroke="#303757" stroke-width="2" stroke-linecap="round" stroke-linejoin="round"/>
</svg>
