<svg width="32" height="32" viewBox="0 0 32 32" fill="none" xmlns="http://www.w3.org/2000/svg">
<path d="M18.2054 13.7931C19.4244 15.0121 19.4244 16.9884 18.2054 18.2073C16.9864 19.4263 15.0101 19.4263 13.7912 18.2073C12.5722 16.9884 12.5722 15.0121 13.7912 13.7931C15.0101 12.5742 16.9865 12.5742 18.2054 13.7931Z" stroke="#303757" stroke-width="2" stroke-linecap="round" stroke-linejoin="round"/>
<path d="M28.5986 14.0128C29.6957 15.1099 29.6957 16.8887 28.5986 17.9858C27.5015 19.0829 25.7227 19.0829 24.6256 17.9858C23.5285 16.8887 23.5285 15.1099 24.6256 14.0128C25.7227 12.9157 27.5014 12.9157 28.5986 14.0128" stroke="#303757" stroke-width="2" stroke-linecap="round" stroke-linejoin="round"/>
<path d="M7.37396 14.0128C8.47107 15.1099 8.47107 16.8887 7.37396 17.9858C6.27685 19.0829 4.49808 19.0829 3.40096 17.9858C2.30385 16.8887 2.30385 15.1099 3.40096 14.0128C4.49807 12.9157 6.27684 12.9157 7.37396 14.0128" stroke="#303757" stroke-width="2" stroke-linecap="round" stroke-linejoin="round"/>
<path d="M23.29 4.82284C24.3871 5.91995 24.3871 7.69872 23.29 8.79584C22.1929 9.89295 20.4141 9.89295 19.317 8.79584C18.2199 7.69872 18.2199 5.91996 19.317 4.82284C20.4141 3.72572 22.1929 3.72572 23.29 4.82284Z" stroke="#303757" stroke-width="2" stroke-linecap="round" stroke-linejoin="round"/>
<path d="M12.6806 23.2042C13.7777 24.3013 13.7777 26.0801 12.6806 27.1772C11.5835 28.2743 9.80472 28.2743 8.7076 27.1772C7.61049 26.0801 7.61049 24.3013 8.7076 23.2042C9.80471 22.1071 11.5835 22.1071 12.6806 23.2042Z" stroke="#303757" stroke-width="2" stroke-linecap="round" stroke-linejoin="round"/>
<path d="M12.6806 4.82284C13.7777 5.91995 13.7777 7.69872 12.6806 8.79584C11.5835 9.89295 9.80472 9.89295 8.7076 8.79584C7.61049 7.69872 7.61049 5.91996 8.7076 4.82284C9.80471 3.72572 11.5835 3.72572 12.6806 4.82284Z" stroke="#303757" stroke-width="2" stroke-linecap="round" stroke-linejoin="round"/>
<path d="M23.29 23.2042C24.3871 24.3013 24.3871 26.0801 23.29 27.1772C22.1929 28.2743 20.4141 28.2743 19.317 27.1772C18.2199 26.0801 18.2199 24.3013 19.317 23.2042C20.4141 22.1071 22.1929 22.1071 23.29 23.2042Z" stroke="#303757" stroke-width="2" stroke-linecap="round" stroke-linejoin="round"/>
<path d="M12.0938 22.7595L14.4404 18.6929" stroke="#303757" stroke-width="2" stroke-linecap="round" stroke-linejoin="round"/>
<path d="M12.0938 9.23975L14.4404 13.3064" stroke="#303757" stroke-width="2" stroke-linecap="round" stroke-linejoin="round"/>
<path d="M23.7991 16H19.1191" stroke="#303757" stroke-width="2" stroke-linecap="round" stroke-linejoin="round"/>
</svg>
